<?xml version="1.0" encoding="UTF-8"?>
<svg id="Camada_1" data-name="Camada 1" xmlns="http://www.w3.org/2000/svg" viewBox="0 0 422.91 383.4">
  <defs>
    <style>
      .cls-1 {
        fill: #103758;
      }
    </style>
  </defs>
  <path class="cls-1" d="M270.56,162.23l-44.85-44.85c-2.51-2.51-5.85-3.88-9.37-3.88h-46.33c-11.86,0-21.51,9.67-21.51,21.54v116.02c0,11.86,9.67,21.54,21.51,21.54h82.89c11.86,0,21.51-9.67,21.51-21.54v-79.48c.03-3.5-1.37-6.83-3.85-9.35ZM236.34,206.26h-19.9v19.92c0,2.73-2.21,4.95-4.97,4.95s-4.95-2.21-4.95-4.95v-19.92h-19.9c-2.76,0-4.95-2.21-4.95-4.95s2.19-4.95,4.95-4.95h19.92v-19.9c0-2.73,2.21-4.95,4.95-4.95s4.97,2.21,4.97,4.95v19.92h19.87c2.73,0,4.97,2.21,4.97,4.95s-2.24,4.92-4.97,4.92Z"/>
</svg>