<?xml version="1.0" encoding="UTF-8"?>
<svg id="Camada_1" data-name="Camada 1" xmlns="http://www.w3.org/2000/svg" viewBox="0 0 422.91 383.4">
  <defs>
    <style>
      .cls-1 {
        fill: #103758;
      }
    </style>
  </defs>
  <path class="cls-1" d="M302.48,232.65l-27.98-10.44-53.59,19.9c-2.96.99-6.3,1.77-9.46,1.77-3.35,0-6.5-.59-9.46-1.77l-53.59-19.9-27.98,10.44c-3.35,1.18-3.35,5.91,0,7.29l86.49,31.92c2.96.99,6.11.99,9.06,0l86.49-31.92c3.35-1.38,3.35-6.11,0-7.29Z"/>
  <path class="cls-1" d="M302.48,189.5l-27.98-10.44-53.59,19.7c-2.96,1.18-6.3,1.77-9.46,1.77-3.35,0-6.5-.59-9.46-1.77l-53.59-19.7-27.98,10.44c-3.35,1.18-3.35,5.91,0,7.29l86.49,31.72c2.96,1.18,6.11,1.18,9.06,0l86.49-31.92c3.35-1.18,3.35-5.91,0-7.09Z"/>
  <path class="cls-1" d="M120.44,153.45l86.49,31.92c2.96.99,6.11.99,9.06,0l86.49-31.92c3.35-1.18,3.35-6.11,0-7.29l-86.49-31.92c-2.96-.99-6.11-.99-9.06,0l-86.49,31.92c-3.35,1.18-3.35,6.11,0,7.29Z"/>
</svg>