<?xml version="1.0" encoding="UTF-8"?>
<svg id="Camada_1" data-name="Camada 1" xmlns="http://www.w3.org/2000/svg" viewBox="0 0 422.91 383.4">
  <defs>
    <style>
      .cls-1 {
        fill: #103758;
      }
    </style>
  </defs>
  <path class="cls-1" d="M242.13,262.03v7.76c0,6.11-4.47,11.28-10.58,12.22l-1.88,7.05c-.94,3.76-4.47,6.58-8.46,6.58h-19.27c-4,0-7.52-2.59-8.46-6.58l-1.88-7.05c-5.88-.94-10.58-6.11-10.58-12.22v-7.76c0-4.23,3.29-7.52,7.52-7.52h46.06c4.23,0,7.52,3.29,7.52,7.52ZM197.47,142.4c-7.76,7.76-7.76,20.45,0,28.44,7.76,7.76,20.45,7.76,28.44,0,7.76-7.76,7.76-20.45,0-28.44-7.99-7.99-20.68-7.99-28.44,0ZM211.1,90.46c-36.66.24-65.81,30.08-65.57,66.75.24,17.39,7.05,33.37,18.33,45.12,8.7,8.93,14.34,20.68,16.22,32.9.94,5.17,5.41,9.17,10.81,9.17h40.89c5.41,0,9.87-4,10.81-9.17,1.88-12.22,7.52-23.74,16.22-32.9,11.52-11.75,18.57-27.97,18.57-45.83.24-36.66-29.85-66.28-66.28-66.04ZM253.88,163.32h-5.88c-.94,4.94-2.82,9.64-5.64,13.87l4.23,4.23c1.41,1.41,1.41,4,0,5.41l-4.23,4.23c-1.41,1.41-4,1.41-5.41,0l-4-4c-4.23,3.06-8.93,4.94-13.87,5.88v5.88c0,2.12-1.65,4-4,4h-6.11c-2.12,0-4-1.65-4-4v-5.64c-4.94-.94-9.64-2.82-14.1-5.88l-4,4c-1.41,1.41-4,1.41-5.41,0l-4.23-4.23c-1.41-1.41-1.41-4,0-5.41l4-4c-3.06-4.23-4.94-9.17-5.88-14.1h-5.64c-2.12,0-4-1.65-4-4v-6.11c0-2.12,1.65-4,4-4h5.88c.94-4.94,2.82-9.64,5.88-13.87l-4-4c-1.41-1.41-1.41-4,0-5.41l4.23-4.23c1.41-1.41,4-1.41,5.41,0l4.23,4.23c4.23-2.82,8.93-4.7,13.87-5.64v-5.88c0-2.12,1.65-4,4-4h6.11c2.12,0,4,1.65,4,4v5.88c4.94.94,9.64,2.82,13.87,5.64l4.23-4.23c1.41-1.41,4-1.41,5.41,0l4.23,4.23c1.41,1.41,1.41,4,0,5.41l-4.23,4.23c2.82,4.23,4.94,8.93,5.88,13.87h5.88c2.12,0,4,1.65,4,4v6.11c-.94,1.88-2.82,3.53-4.7,3.53Z"/>
</svg>