<?xml version="1.0" encoding="UTF-8"?>
<svg id="Camada_1" xmlns="http://www.w3.org/2000/svg" version="1.1" viewBox="0 0 1070.15 453.63">
  <!-- Generator: Adobe Illustrator 29.6.1, SVG Export Plug-In . SVG Version: 2.1.1 Build 9)  -->
  <defs>
    <style>
      .st0 {
        fill: #d3b43b;
      }

      .st1 {
        fill: #324980;
      }
    </style>
  </defs>
  <g>
    <path class="st1" d="M436.87,142.71c0-8.61,6.82-15.48,15.48-15.48s15.43,6.82,15.43,15.48v111.98c0,8.61-6.82,15.43-15.43,15.43s-15.48-6.82-15.48-15.43v-111.98Z"/>
    <path class="st1" d="M523.01,143.89c0-8.61,6.82-15.48,15.43-15.48h78.66c7.81,0,14.06,6.2,14.06,14.06s-6.2,14.06-14.06,14.06h-63.23v29.91h54.19c7.81,0,14.06,6.2,14.06,14.06s-6.2,14.06-14.06,14.06h-54.19v40.13c0,8.61-6.82,15.43-15.48,15.43s-15.43-6.82-15.43-15.43v-110.8h.05Z"/>
    <path class="st1" d="M674.69,253.46v-109.57c0-8.61,6.82-15.48,15.43-15.48h77.86c7.62,0,13.87,6.2,13.87,13.87s-6.2,13.63-13.87,13.63h-62.62v28.49h53.58c7.62,0,13.87,6.2,13.87,13.87s-6.2,13.63-13.87,13.63h-53.58v29.49h63.61c7.62,0,13.87,6.2,13.87,13.87s-6.2,13.63-13.87,13.63h-78.85c-8.61,0-15.43-6.82-15.43-15.43Z"/>
    <path class="st1" d="M829.22,143.09c0-8.61,6.82-15.43,15.43-15.43h3.41c6.63,0,11.22,3.41,14.06,8.05l37.34,60.82,37.53-61.01c3.22-5.21,7.62-7.81,13.87-7.81h3.41c8.61,0,15.48,6.82,15.48,15.43v111.6c0,8.61-6.82,15.43-15.48,15.43s-15.24-7-15.24-15.43v-70.05l-27.07,41.74c-3.22,4.83-7.24,7.81-12.83,7.81s-9.66-3.03-12.83-7.81l-26.69-41.13v69.86c0,8.42-6.82,15.05-15.24,15.05s-15.05-6.63-15.05-15.05v-111.98l-.09-.09Z"/>
  </g>
  <g>
    <path class="st1" d="M436.49,289.9c0-.85.71-1.56,1.56-1.56s1.56.71,1.56,1.56v24.89c0,.85-.71,1.56-1.56,1.56s-1.56-.71-1.56-1.56v-24.89Z"/>
    <path class="st1" d="M445.2,297.1c0-.85.66-1.56,1.51-1.56s1.56.66,1.56,1.56v2.22c1.33-2.22,3.46-3.98,7-3.98,4.92,0,7.81,3.31,7.81,8.19v11.36c0,.85-.66,1.56-1.51,1.56s-1.56-.66-1.56-1.56v-10.6c0-3.79-2.04-6.15-5.63-6.15s-6.11,2.56-6.11,6.39v10.36c0,.85-.62,1.56-1.51,1.56s-1.56-.66-1.56-1.56v-17.8Z"/>
    <path class="st1" d="M487.04,314.85c0,.85-.66,1.56-1.51,1.56s-1.56-.66-1.56-1.56v-2.75c-1.66,2.46-4.07,4.54-7.81,4.54-4.92,0-9.75-3.88-9.75-10.6v-.09c0-6.67,4.87-10.65,9.75-10.65,3.79,0,6.25,2.04,7.81,4.35v-10.98c0-.85.62-1.56,1.51-1.56s1.56.66,1.56,1.56v26.17ZM469.52,305.9v.09c0,4.83,3.36,7.9,7.19,7.9s7.38-3.22,7.38-7.9v-.09c0-4.69-3.6-7.86-7.38-7.86s-7.19,2.93-7.19,7.86Z"/>
    <path class="st1" d="M491.86,289.34c0-.99.8-1.61,1.8-1.61s1.8.62,1.8,1.61v.52c0,.95-.8,1.61-1.8,1.61s-1.8-.66-1.8-1.61v-.52ZM492.15,297.1c0-.85.66-1.56,1.51-1.56s1.56.66,1.56,1.56v17.75c0,.85-.62,1.56-1.51,1.56s-1.56-.66-1.56-1.56v-17.75Z"/>
    <path class="st1" d="M499.01,306.04v-.09c0-5.77,4.5-10.65,10.46-10.65,3.41,0,5.68,1.33,7.53,2.98.24.19.47.62.47,1.09,0,.85-.66,1.47-1.47,1.47-.38,0-.76-.14-.99-.38-1.47-1.33-3.12-2.46-5.58-2.46-4.16,0-7.29,3.5-7.29,7.9v.09c0,4.45,3.22,7.95,7.53,7.95,2.32,0,4.21-1.09,5.68-2.51.19-.19.47-.38.85-.38.76,0,1.37.66,1.37,1.37,0,.38-.14.71-.38.95-1.94,1.94-4.26,3.27-7.71,3.27-5.96,0-10.46-4.87-10.46-10.6Z"/>
    <path class="st1" d="M519.36,310.25v-.09c0-4.31,3.55-6.58,8.76-6.58,2.6,0,4.45.38,6.29.85v-.71c0-3.69-2.27-5.58-6.11-5.58-2.04,0-3.79.47-5.3,1.14-.19.09-.38.09-.57.09-.71,0-1.33-.62-1.33-1.33,0-.62.43-1.09.85-1.28,2.04-.85,4.07-1.37,6.67-1.37,2.89,0,5.11.76,6.58,2.27,1.37,1.37,2.08,3.36,2.08,5.96v11.17c0,.85-.62,1.51-1.47,1.51s-1.47-.62-1.47-1.42v-1.85c-1.42,1.85-3.79,3.5-7.38,3.5-3.79,0-7.62-2.18-7.62-6.34v.05ZM534.41,308.69v-1.99c-1.51-.43-3.5-.85-6.01-.85-3.83,0-5.96,1.66-5.96,4.21v.09c0,2.56,2.37,4.07,5.16,4.07,3.74,0,6.82-2.27,6.82-5.54Z"/>
    <path class="st1" d="M561.25,314.85c0,.85-.66,1.56-1.51,1.56s-1.56-.66-1.56-1.56v-2.75c-1.66,2.46-4.07,4.54-7.81,4.54-4.92,0-9.75-3.88-9.75-10.6v-.09c0-6.67,4.87-10.65,9.75-10.65,3.79,0,6.25,2.04,7.81,4.35v-10.98c0-.85.62-1.56,1.51-1.56s1.56.66,1.56,1.56v26.17ZM543.74,305.9v.09c0,4.83,3.36,7.9,7.19,7.9s7.38-3.22,7.38-7.9v-.09c0-4.69-3.6-7.86-7.38-7.86s-7.19,2.93-7.19,7.86Z"/>
    <path class="st1" d="M564.8,306.04v-.09c0-5.77,4.5-10.65,10.65-10.65s10.65,4.83,10.65,10.6v.09c0,5.77-4.54,10.65-10.7,10.65s-10.6-4.83-10.6-10.6ZM583.02,306.04v-.09c0-4.4-3.27-8-7.57-8s-7.48,3.6-7.48,7.9v.09c0,4.4,3.22,7.95,7.53,7.95s7.53-3.55,7.53-7.86Z"/>
    <path class="st1" d="M589.64,297.1c0-.85.66-1.56,1.51-1.56s1.56.66,1.56,1.56v3.83c1.51-3.41,4.45-5.44,7.05-5.44.9,0,1.51.66,1.51,1.56s-.57,1.42-1.33,1.56c-3.93.47-7.19,3.45-7.19,9.32v6.96c0,.85-.62,1.56-1.51,1.56s-1.56-.66-1.56-1.56v-17.75l-.05-.05Z"/>
    <path class="st1" d="M612.6,316.64c-5.63,0-10.18-4.31-10.18-10.65v-.09c0-5.87,4.16-10.65,9.8-10.65,6.06,0,9.47,4.92,9.47,10.36,0,.85-.66,1.42-1.42,1.42h-14.77c.43,4.45,3.55,6.91,7.19,6.91,2.51,0,4.4-.99,5.87-2.37.24-.19.52-.38.85-.38.76,0,1.33.62,1.33,1.33,0,.38-.14.71-.47.99-1.94,1.85-4.21,3.08-7.71,3.08l.05.05ZM618.66,304.86c-.33-3.74-2.46-6.96-6.53-6.96-3.55,0-6.25,2.98-6.63,6.96h13.16Z"/>
    <path class="st1" d="M624,313.99c-.28-.19-.57-.62-.57-1.09,0-.71.62-1.33,1.33-1.33.28,0,.57.09.76.24,2.08,1.42,4.26,2.18,6.48,2.18,2.46,0,4.21-1.28,4.21-3.22v-.09c0-2.04-2.41-2.84-5.11-3.6-3.22-.9-6.77-2.04-6.77-5.77v-.09c0-3.5,2.93-5.87,6.96-5.87,2.18,0,4.54.66,6.53,1.75.38.24.76.66.76,1.28,0,.71-.62,1.33-1.33,1.33-.28,0-.52-.09-.66-.14-1.75-.99-3.6-1.56-5.35-1.56-2.41,0-3.93,1.28-3.93,2.98v.09c0,1.94,2.51,2.7,5.25,3.5,3.17.95,6.58,2.18,6.58,5.87v.09c0,3.88-3.22,6.11-7.29,6.11-2.7,0-5.63-.99-7.86-2.56v-.09Z"/>
    <path class="st1" d="M672.19,314.85c0,.85-.66,1.56-1.51,1.56s-1.56-.66-1.56-1.56v-2.75c-1.66,2.46-4.07,4.54-7.81,4.54-4.92,0-9.75-3.88-9.75-10.6v-.09c0-6.67,4.87-10.65,9.75-10.65,3.79,0,6.25,2.04,7.81,4.35v-10.98c0-.85.62-1.56,1.51-1.56s1.56.66,1.56,1.56v26.17ZM654.67,305.9v.09c0,4.83,3.36,7.9,7.19,7.9s7.38-3.22,7.38-7.9v-.09c0-4.69-3.6-7.86-7.38-7.86s-7.19,2.93-7.19,7.86Z"/>
    <path class="st1" d="M685.91,316.64c-5.63,0-10.18-4.31-10.18-10.65v-.09c0-5.87,4.16-10.65,9.8-10.65,6.06,0,9.47,4.92,9.47,10.36,0,.85-.66,1.42-1.42,1.42h-14.77c.43,4.45,3.55,6.91,7.19,6.91,2.51,0,4.4-.99,5.87-2.37.24-.19.52-.38.85-.38.76,0,1.33.62,1.33,1.33,0,.38-.14.71-.47.99-1.94,1.85-4.21,3.08-7.71,3.08l.05.05ZM691.97,304.86c-.33-3.74-2.46-6.96-6.53-6.96-3.55,0-6.25,2.98-6.63,6.96h13.16Z"/>
    <path class="st1" d="M708.82,290.09c0-.85.71-1.56,1.56-1.56h17.13c.8,0,1.42.62,1.42,1.42s-.62,1.47-1.42,1.47h-15.52v9.89h13.77c.8,0,1.42.62,1.42,1.42s-.62,1.42-1.42,1.42h-13.77v10.65c0,.85-.71,1.56-1.56,1.56s-1.56-.71-1.56-1.56v-24.71h-.05Z"/>
    <path class="st1" d="M732.29,289.34c0-.99.8-1.61,1.8-1.61s1.8.62,1.8,1.61v.52c0,.95-.8,1.61-1.8,1.61s-1.8-.66-1.8-1.61v-.52ZM732.53,297.1c0-.85.66-1.56,1.51-1.56s1.56.66,1.56,1.56v17.75c0,.85-.62,1.56-1.51,1.56s-1.56-.66-1.56-1.56v-17.75Z"/>
    <path class="st1" d="M740.72,297.1c0-.85.66-1.56,1.51-1.56s1.56.66,1.56,1.56v2.22c1.33-2.22,3.45-3.98,7-3.98,4.92,0,7.81,3.31,7.81,8.19v11.36c0,.85-.66,1.56-1.51,1.56s-1.56-.66-1.56-1.56v-10.6c0-3.79-2.04-6.15-5.63-6.15s-6.11,2.56-6.11,6.39v10.36c0,.85-.62,1.56-1.51,1.56s-1.56-.66-1.56-1.56v-17.8Z"/>
    <path class="st1" d="M761.54,310.25v-.09c0-4.31,3.55-6.58,8.76-6.58,2.6,0,4.45.38,6.29.85v-.71c0-3.69-2.27-5.58-6.11-5.58-2.04,0-3.79.47-5.3,1.14-.19.09-.38.09-.57.09-.71,0-1.33-.62-1.33-1.33,0-.62.43-1.09.85-1.28,2.04-.85,4.07-1.37,6.67-1.37,2.89,0,5.11.76,6.58,2.27,1.37,1.37,2.08,3.36,2.08,5.96v11.17c0,.85-.62,1.51-1.47,1.51s-1.47-.62-1.47-1.42v-1.85c-1.42,1.85-3.79,3.5-7.38,3.5-3.79,0-7.62-2.18-7.62-6.34v.05ZM776.59,308.69v-1.99c-1.51-.43-3.5-.85-6.01-.85-3.83,0-5.96,1.66-5.96,4.21v.09c0,2.56,2.37,4.07,5.16,4.07,3.74,0,6.82-2.27,6.82-5.54Z"/>
    <path class="st1" d="M783.98,297.1c0-.85.66-1.56,1.51-1.56s1.56.66,1.56,1.56v2.22c1.33-2.22,3.45-3.98,7-3.98,4.92,0,7.81,3.31,7.81,8.19v11.36c0,.85-.66,1.56-1.51,1.56s-1.56-.66-1.56-1.56v-10.6c0-3.79-2.04-6.15-5.63-6.15s-6.11,2.56-6.11,6.39v10.36c0,.85-.62,1.56-1.51,1.56s-1.56-.66-1.56-1.56v-17.8Z"/>
    <path class="st1" d="M805.08,306.04v-.09c0-5.77,4.5-10.65,10.46-10.65,3.41,0,5.68,1.33,7.53,2.98.24.19.47.62.47,1.09,0,.85-.66,1.47-1.47,1.47-.38,0-.76-.14-.99-.38-1.47-1.33-3.12-2.46-5.58-2.46-4.16,0-7.29,3.5-7.29,7.9v.09c0,4.45,3.22,7.95,7.53,7.95,2.32,0,4.21-1.09,5.68-2.51.19-.19.47-.38.85-.38.76,0,1.37.66,1.37,1.37,0,.38-.14.71-.38.95-1.94,1.94-4.26,3.27-7.71,3.27-5.96,0-10.46-4.87-10.46-10.6h0Z"/>
    <path class="st1" d="M826.95,289.34c0-.99.8-1.61,1.8-1.61s1.8.62,1.8,1.61v.52c0,.95-.8,1.61-1.8,1.61s-1.8-.66-1.8-1.61v-.52ZM827.23,297.1c0-.85.66-1.56,1.51-1.56s1.56.66,1.56,1.56v17.75c0,.85-.62,1.56-1.51,1.56s-1.56-.66-1.56-1.56v-17.75Z"/>
    <path class="st1" d="M833.86,310.25v-.09c0-4.31,3.55-6.58,8.76-6.58,2.6,0,4.45.38,6.29.85v-.71c0-3.69-2.27-5.58-6.11-5.58-2.04,0-3.79.47-5.3,1.14-.19.09-.38.09-.57.09-.71,0-1.33-.62-1.33-1.33,0-.62.43-1.09.85-1.28,2.04-.85,4.07-1.37,6.67-1.37,2.89,0,5.11.76,6.58,2.27,1.37,1.37,2.08,3.36,2.08,5.96v11.17c0,.85-.62,1.51-1.47,1.51s-1.47-.62-1.47-1.42v-1.85c-1.42,1.85-3.79,3.5-7.38,3.5-3.79,0-7.62-2.18-7.62-6.34v.05ZM848.91,308.69v-1.99c-1.51-.43-3.5-.85-6.01-.85-3.83,0-5.96,1.66-5.96,4.21v.09c0,2.56,2.37,4.07,5.16,4.07,3.74,0,6.82-2.27,6.82-5.54Z"/>
    <path class="st1" d="M856.29,297.1c0-.85.66-1.56,1.51-1.56s1.56.66,1.56,1.56v2.08c1.33-2.04,3.17-3.88,6.58-3.88s5.44,1.8,6.58,4.07c1.47-2.27,3.64-4.07,7.19-4.07,4.69,0,7.57,3.17,7.57,8.24v11.31c0,.85-.66,1.56-1.51,1.56s-1.56-.66-1.56-1.56v-10.6c0-3.93-1.99-6.15-5.3-6.15-3.08,0-5.63,2.27-5.63,6.34v10.41c0,.85-.66,1.56-1.56,1.56s-1.51-.66-1.51-1.56v-10.65c0-3.83-2.04-6.11-5.25-6.11s-5.68,2.7-5.68,6.44v10.32c0,.85-.62,1.56-1.51,1.56s-1.56-.66-1.56-1.56v-17.75h.09Z"/>
    <path class="st1" d="M900.88,316.64c-5.63,0-10.18-4.31-10.18-10.65v-.09c0-5.87,4.16-10.65,9.8-10.65,6.06,0,9.47,4.92,9.47,10.36,0,.85-.66,1.42-1.42,1.42h-14.77c.43,4.45,3.55,6.91,7.19,6.91,2.51,0,4.4-.99,5.87-2.37.24-.19.52-.38.85-.38.76,0,1.33.62,1.33,1.33,0,.38-.14.71-.47.99-1.94,1.85-4.21,3.08-7.71,3.08l.05.05ZM906.94,304.86c-.33-3.74-2.46-6.96-6.53-6.96-3.55,0-6.25,2.98-6.63,6.96h13.16Z"/>
    <path class="st1" d="M913.37,297.1c0-.85.66-1.56,1.51-1.56s1.56.66,1.56,1.56v2.22c1.33-2.22,3.45-3.98,7-3.98,4.92,0,7.81,3.31,7.81,8.19v11.36c0,.85-.66,1.56-1.51,1.56s-1.56-.66-1.56-1.56v-10.6c0-3.79-2.04-6.15-5.63-6.15s-6.11,2.56-6.11,6.39v10.36c0,.85-.62,1.56-1.51,1.56s-1.56-.66-1.56-1.56v-17.8Z"/>
    <path class="st1" d="M936.8,310.78v-12.35h-1.66c-.71,0-1.33-.62-1.33-1.33,0-.76.62-1.33,1.33-1.33h1.66v-4.83c0-.85.62-1.56,1.51-1.56s1.56.71,1.56,1.56v4.83h5.3c.76,0,1.37.62,1.37,1.33,0,.76-.62,1.33-1.37,1.33h-5.3v11.93c0,2.51,1.37,3.41,3.45,3.41,1.09,0,1.61-.28,1.85-.28.71,0,1.33.62,1.33,1.33,0,.57-.38.99-.85,1.18-.85.38-1.8.57-2.98.57-3.27,0-5.77-1.61-5.77-5.77h-.09Z"/>
    <path class="st1" d="M948.49,306.04v-.09c0-5.77,4.5-10.65,10.65-10.65s10.65,4.83,10.65,10.6v.09c0,5.77-4.54,10.65-10.7,10.65s-10.6-4.83-10.6-10.6ZM966.66,306.04v-.09c0-4.4-3.27-8-7.57-8s-7.48,3.6-7.48,7.9v.09c0,4.4,3.22,7.95,7.53,7.95s7.53-3.55,7.53-7.86h0Z"/>
    <path class="st1" d="M444.63,355.83c-5.63,0-10.18-4.31-10.18-10.65v-.09c0-5.87,4.16-10.65,9.8-10.65,6.06,0,9.47,4.92,9.47,10.36,0,.85-.66,1.42-1.42,1.42h-14.77c.43,4.45,3.55,6.91,7.19,6.91,2.51,0,4.4-.99,5.87-2.37.24-.19.52-.38.85-.38.76,0,1.33.62,1.33,1.33,0,.38-.14.71-.47.99-1.94,1.85-4.21,3.08-7.71,3.08l.05.05ZM450.64,344c-.33-3.74-2.46-6.96-6.53-6.96-3.55,0-6.25,2.98-6.63,6.96h13.16Z"/>
    <path class="st1" d="M467.49,353.8v-24.52c0-.85.71-1.56,1.56-1.56h17.18c.8,0,1.42.62,1.42,1.42s-.62,1.42-1.42,1.42h-15.62v9.47h13.82c.8,0,1.42.66,1.42,1.42,0,.8-.62,1.42-1.42,1.42h-13.82v9.7h15.81c.8,0,1.42.62,1.42,1.42s-.62,1.42-1.42,1.42h-17.37c-.85,0-1.56-.71-1.56-1.56v-.05Z"/>
    <path class="st1" d="M510.94,360.33c0,.85-.66,1.56-1.51,1.56s-1.56-.66-1.56-1.56v-9.09c-1.66,2.46-4.07,4.54-7.81,4.54-4.92,0-9.75-3.88-9.75-10.6v-.09c0-6.67,4.87-10.65,9.75-10.65,3.79,0,6.25,2.04,7.81,4.35v-2.56c0-.85.62-1.56,1.51-1.56s1.56.71,1.56,1.56v24.09ZM493.43,345.09v.09c0,4.83,3.36,7.9,7.19,7.9s7.38-3.22,7.38-7.9v-.09c0-4.69-3.6-7.86-7.38-7.86s-7.19,2.93-7.19,7.86Z"/>
    <path class="st1" d="M533.28,354.03c0,.85-.62,1.56-1.51,1.56s-1.51-.66-1.51-1.56v-2.22c-1.37,2.22-3.46,3.98-7,3.98-4.92,0-7.81-3.31-7.81-8.19v-11.36c0-.85.62-1.56,1.51-1.56s1.56.66,1.56,1.56v10.6c0,3.79,2.04,6.15,5.63,6.15s6.11-2.56,6.11-6.39v-10.36c0-.85.62-1.56,1.51-1.56s1.51.66,1.51,1.56v17.8Z"/>
    <path class="st1" d="M538.15,328.52c0-.99.8-1.61,1.8-1.61s1.8.62,1.8,1.61v.52c0,.95-.8,1.61-1.8,1.61s-1.8-.66-1.8-1.61v-.52ZM538.43,336.29c0-.85.66-1.56,1.51-1.56s1.56.66,1.56,1.56v17.75c0,.85-.62,1.56-1.51,1.56s-1.56-.66-1.56-1.56v-17.75Z"/>
    <path class="st1" d="M566.03,354.03c0,.85-.66,1.56-1.51,1.56s-1.56-.66-1.56-1.56v-2.75c-1.66,2.46-4.07,4.54-7.81,4.54-4.92,0-9.75-3.88-9.75-10.6v-.09c0-6.67,4.87-10.65,9.75-10.65,3.79,0,6.25,2.04,7.81,4.35v-10.98c0-.85.62-1.56,1.51-1.56s1.56.66,1.56,1.56v26.17ZM548.52,345.09v.09c0,4.83,3.36,7.9,7.19,7.9s7.38-3.22,7.38-7.9v-.09c0-4.69-3.6-7.86-7.38-7.86s-7.19,2.93-7.19,7.86Z"/>
    <path class="st1" d="M569.34,349.44v-.09c0-4.31,3.55-6.58,8.76-6.58,2.6,0,4.45.38,6.29.85v-.71c0-3.69-2.27-5.58-6.11-5.58-2.04,0-3.79.47-5.3,1.14-.19.09-.38.09-.57.09-.71,0-1.33-.62-1.33-1.33,0-.62.43-1.09.85-1.28,2.04-.85,4.07-1.37,6.67-1.37,2.89,0,5.11.76,6.58,2.27,1.37,1.37,2.08,3.36,2.08,5.96v11.17c0,.85-.62,1.51-1.47,1.51s-1.47-.62-1.47-1.42v-1.85c-1.42,1.85-3.79,3.5-7.38,3.5-3.79,0-7.62-2.18-7.62-6.34v.05ZM584.39,347.83v-1.99c-1.51-.43-3.5-.85-6.01-.85-3.83,0-5.96,1.66-5.96,4.21v.09c0,2.56,2.37,4.07,5.16,4.07,3.74,0,6.82-2.27,6.82-5.54Z"/>
    <path class="st1" d="M611.23,354.03c0,.85-.66,1.56-1.51,1.56s-1.56-.66-1.56-1.56v-2.75c-1.66,2.46-4.07,4.54-7.81,4.54-4.92,0-9.75-3.88-9.75-10.6v-.09c0-6.67,4.87-10.65,9.75-10.65,3.79,0,6.25,2.04,7.81,4.35v-10.98c0-.85.62-1.56,1.51-1.56s1.56.66,1.56,1.56v26.17ZM593.71,345.09v.09c0,4.83,3.36,7.9,7.19,7.9s7.38-3.22,7.38-7.9v-.09c0-4.69-3.6-7.86-7.38-7.86s-7.19,2.93-7.19,7.86Z"/>
    <path class="st1" d="M625,355.83c-5.63,0-10.18-4.31-10.18-10.65v-.09c0-5.87,4.16-10.65,9.8-10.65,6.06,0,9.47,4.92,9.47,10.36,0,.85-.66,1.42-1.42,1.42h-14.77c.43,4.45,3.55,6.91,7.19,6.91,2.51,0,4.4-.99,5.87-2.37.24-.19.52-.38.85-.38.76,0,1.33.62,1.33,1.33,0,.38-.14.71-.47.99-1.94,1.85-4.21,3.08-7.71,3.08l.05.05ZM631.06,344c-.33-3.74-2.46-6.96-6.53-6.96-3.55,0-6.25,2.98-6.63,6.96h13.16Z"/>
    <path class="st1" d="M647.91,329.14c0-.85.71-1.56,1.56-1.56h.38c.66,0,1.14.38,1.47.85l9.89,14.86,9.89-14.86c.33-.52.85-.85,1.47-.85h.38c.85,0,1.56.71,1.56,1.56v24.85c0,.85-.71,1.56-1.56,1.56s-1.56-.76-1.56-1.56v-20.64l-8.85,13.02c-.38.52-.76.8-1.33.8s-.99-.28-1.33-.8l-8.8-12.97v20.64c0,.85-.66,1.56-1.56,1.56s-1.51-.66-1.51-1.56v-24.89h-.09Z"/>
    <path class="st1" d="M697.22,354.03c0,.85-.62,1.56-1.51,1.56s-1.51-.66-1.51-1.56v-2.22c-1.37,2.22-3.46,3.98-7,3.98-4.92,0-7.81-3.31-7.81-8.19v-11.36c0-.85.62-1.56,1.51-1.56s1.56.66,1.56,1.56v10.6c0,3.79,2.04,6.15,5.63,6.15s6.11-2.56,6.11-6.39v-10.36c0-.85.62-1.56,1.51-1.56s1.51.66,1.51,1.56v17.8Z"/>
    <path class="st1" d="M702.1,336.29c0-.85.66-1.56,1.51-1.56s1.56.66,1.56,1.56v2.22c1.33-2.22,3.45-3.98,7-3.98,4.92,0,7.81,3.31,7.81,8.19v11.36c0,.85-.66,1.56-1.51,1.56s-1.56-.66-1.56-1.56v-10.6c0-3.79-2.04-6.15-5.63-6.15s-6.11,2.56-6.11,6.39v10.36c0,.85-.62,1.56-1.51,1.56s-1.56-.66-1.56-1.56v-17.8Z"/>
    <path class="st1" d="M724.48,328.52c0-.99.8-1.61,1.8-1.61s1.8.62,1.8,1.61v.52c0,.95-.8,1.61-1.8,1.61s-1.8-.66-1.8-1.61v-.52ZM724.77,336.29c0-.85.66-1.56,1.51-1.56s1.56.66,1.56,1.56v17.75c0,.85-.62,1.56-1.51,1.56s-1.56-.66-1.56-1.56v-17.75Z"/>
    <path class="st1" d="M731.63,345.23v-.09c0-5.77,4.5-10.65,10.46-10.65,3.41,0,5.68,1.33,7.53,2.98.24.19.47.62.47,1.09,0,.85-.66,1.47-1.47,1.47-.38,0-.76-.14-.99-.38-1.47-1.33-3.12-2.46-5.58-2.46-4.16,0-7.29,3.5-7.29,7.9v.09c0,4.45,3.22,7.95,7.53,7.95,2.32,0,4.21-1.09,5.68-2.51.19-.19.47-.38.85-.38.76,0,1.37.66,1.37,1.37,0,.38-.14.71-.38.95-1.94,1.94-4.26,3.27-7.71,3.27-5.96,0-10.46-4.87-10.46-10.6h0Z"/>
    <path class="st1" d="M753.5,328.52c0-.99.8-1.61,1.8-1.61s1.8.62,1.8,1.61v.52c0,.95-.8,1.61-1.8,1.61s-1.8-.66-1.8-1.61v-.52ZM753.78,336.29c0-.85.66-1.56,1.51-1.56s1.56.66,1.56,1.56v17.75c0,.85-.62,1.56-1.51,1.56s-1.56-.66-1.56-1.56v-17.75Z"/>
    <path class="st1" d="M761.92,336.29c0-.85.66-1.56,1.51-1.56s1.56.66,1.56,1.56v2.75c1.66-2.46,4.07-4.54,7.81-4.54,4.92,0,9.75,3.88,9.75,10.6v.09c0,6.67-4.83,10.65-9.75,10.65-3.79,0-6.25-2.04-7.81-4.35v8.9c0,.85-.62,1.56-1.51,1.56s-1.56-.66-1.56-1.56v-24.09ZM779.43,345.18v-.09c0-4.83-3.31-7.9-7.19-7.9s-7.38,3.22-7.38,7.86v.09c0,4.73,3.6,7.9,7.38,7.9s7.19-2.93,7.19-7.86Z"/>
    <path class="st1" d="M784.69,349.44v-.09c0-4.31,3.55-6.58,8.76-6.58,2.6,0,4.45.38,6.29.85v-.71c0-3.69-2.27-5.58-6.11-5.58-2.04,0-3.79.47-5.3,1.14-.19.09-.38.09-.57.09-.71,0-1.33-.62-1.33-1.33,0-.62.43-1.09.85-1.28,2.04-.85,4.07-1.37,6.67-1.37,2.89,0,5.11.76,6.58,2.27,1.37,1.37,2.08,3.36,2.08,5.96v11.17c0,.85-.62,1.51-1.47,1.51s-1.47-.62-1.47-1.42v-1.85c-1.42,1.85-3.79,3.5-7.38,3.5-3.79,0-7.62-2.18-7.62-6.34v.05ZM799.74,347.83v-1.99c-1.51-.43-3.5-.85-6.01-.85-3.83,0-5.96,1.66-5.96,4.21v.09c0,2.56,2.37,4.07,5.16,4.07,3.74,0,6.82-2.27,6.82-5.54Z"/>
    <path class="st1" d="M807.4,327.86c0-.85.66-1.56,1.51-1.56s1.56.71,1.56,1.56v26.17c0,.85-.62,1.56-1.51,1.56s-1.56-.66-1.56-1.56v-26.17Z"/>
  </g>
  <g>
    <path class="st1" d="M292.01,214.11c-2.12,0-4.2-.23-6.23-.7l-10.26,10.27c.46,2.03.69,4.11.69,6.22,0,7.62-2.96,14.82-8.4,20.35-5.42,5.41-12.64,8.4-20.34,8.4s-14.81-2.96-20.34-8.4c-6.73-6.73-9.51-16.42-7.84-25.56l-80.42-62.29-17.12.28h-21.39v40.42h55.42v12.12h35.97v16.38l-.49,17.75h24.77v47.52h21.82v26.22h-15v35.02h35.02v-17.51h15.53v-43.73h45.72v-23.76h18.46v-17.09h12.02v-.44l-50.71-42.32c-2.24.57-4.53.85-6.87.85Z"/>
    <path class="st1" d="M156.99,137.39l.47.37,82.94,64.26c2.31-.61,4.69-.91,7.12-.91,2.11,0,4.19.23,6.23.7l10.3-10.3c-2.12-9.41.6-19.39,7.68-26.54,5.42-5.42,12.64-8.4,20.34-8.4s14.81,2.96,20.29,8.34c5.45,5.37,8.46,12.61,8.46,20.4,0,1.88-.18,3.73-.55,5.55l29.34,24.46v-12.26h24.37v-40.34l-19.5-.08h-4.88v-19.64c-14.62.14-29.2.33-43.83.47-2.7,0-5.39,0-8.09.05v-10.65c-11.88-.09-23.81-.24-35.73-.38v-33.04h-20.78v14.58h-40.75v-22.34h-33.98v23.33h-14.72c3.58,4.8,5.78,10.69,5.78,17.12,0,1.76-.17,3.51-.51,5.24Z"/>
    <path class="st0" d="M383.88,245.39v11.53l-14.73-12.28-19.56-16.31-41.05-34.23c1.46-2.68,2.27-5.65,2.27-8.79,0-5.01-1.92-9.78-5.47-13.27-3.55-3.49-8.27-5.48-13.28-5.48s-9.72,1.93-13.27,5.48c-5.94,6-6.99,14.97-3.2,22.07l-19.27,19.27c-2.68-1.45-5.65-2.27-8.79-2.27s-6.11.82-8.79,2.27l-87.39-67.71-6.11-4.71c1.4-2.68,2.27-5.59,2.27-8.79,0-7.62-4.58-14.18-11.12-17.12-2.35-1.06-4.94-1.69-7.68-1.69-10.36,0-18.8,8.45-18.8,18.81,0,7.91,4.93,14.67,11.87,17.44,2.15.86,4.48,1.37,6.94,1.37,3.2,0,6.17-.87,8.79-2.27l7.51,5.82,86,66.61c-3.79,7.1-2.74,16.13,3.2,22.07,3.55,3.49,8.27,5.47,13.28,5.47s9.72-1.92,13.27-5.47c3.49-3.55,5.47-8.27,5.47-13.28,0-3.15-.81-6.11-2.27-8.79l19.27-19.27c2.68,1.46,5.65,2.27,8.79,2.27s6.11-.82,8.79-2.27l48.8,40.72,11.7,9.76h.06l14.79,12.34h-11.53v10.94h30.28v-30.22h-11ZM128.75,139.95c-3.11,0-5.74-1.85-7-4.48-.48-1.02-.81-2.12-.81-3.32s.32-2.31.81-3.32c1.25-2.63,3.89-4.48,7-4.48,4.31,0,7.8,3.49,7.8,7.8s-3.49,7.8-7.8,7.8ZM253,235.38c-1.46,1.45-3.44,2.27-5.53,2.27s-4.08-.82-5.53-2.27c-3.03-3.03-3.03-8.04,0-11.06,1.45-1.46,3.49-2.21,5.53-2.21s4.07.75,5.53,2.21c1.46,1.45,2.27,3.44,2.27,5.53s-.81,4.07-2.27,5.53ZM297.6,190.84c-1.45,1.45-3.43,2.27-5.53,2.27s-4.07-.82-5.53-2.27c-3.03-3.03-3.03-8.04,0-11.06,1.46-1.45,3.49-2.21,5.53-2.21s4.08.76,5.53,2.21c1.46,1.45,2.27,3.44,2.27,5.53s-.81,4.08-2.27,5.53Z"/>
  </g>
</svg>