<?xml version="1.0" encoding="UTF-8"?>
<svg id="Camada_1" data-name="Camada 1" xmlns="http://www.w3.org/2000/svg" viewBox="0 0 422.91 383.4">
  <defs>
    <style>
      .cls-1 {
        fill: #103758;
        fill-rule: evenodd;
      }
    </style>
  </defs>
  <path class="cls-1" d="M137.2,118.78c28.15-28.15,73.8-28.15,101.96,0,26.35,26.35,28.03,68.02,5.07,96.33l58.08,44.83c3.13,2.41,4.67,5.88,4.52,10.18-.15,4.3-1.94,8.24-5.28,11.57l-1.45,1.45c-3.33,3.33-7.27,5.13-11.57,5.28-4.3.15-7.76-1.38-10.18-4.52l-44.83-58.09c-28.31,22.96-69.99,21.27-96.33-5.07-28.15-28.15-28.15-73.8,0-101.96h0ZM188.18,195.29c-3.61,0-6.53,2.92-6.53,6.53s2.92,6.53,6.53,6.53,6.53-2.92,6.53-6.53c0-3.61-2.93-6.53-6.53-6.53ZM194.13,179.32l.29-2.14,4.58-33.72c.44-3.21-.45-6.14-2.57-8.58-2.13-2.44-4.91-3.71-8.15-3.71h-.21c-3.24,0-6.03,1.27-8.15,3.71-2.13,2.44-3.01,5.37-2.57,8.58l4.58,33.72.29,2.14c.41,3,2.93,5.2,5.96,5.2s5.54-2.2,5.95-5.2h0ZM147.63,129.21c-22.41,22.41-22.41,58.69,0,81.09,22.4,22.41,58.69,22.41,81.09,0,22.41-22.41,22.41-58.69,0-81.09-22.4-22.4-58.69-22.4-81.09,0Z"/>
</svg>