<?xml version="1.0" encoding="UTF-8"?>
<svg id="Camada_1" xmlns="http://www.w3.org/2000/svg" version="1.1" viewBox="0 0 443.23 535.4">
  <!-- Generator: Adobe Illustrator 29.6.1, SVG Export Plug-In . SVG Version: 2.1.1 Build 9)  -->
  <defs>
    <style>
      .st0 {
        fill: #103758;
      }

      .st1 {
        isolation: isolate;
      }
    </style>
  </defs>
  <g class="st1">
    <g class="st1">
      <path class="st0" d="M-574.93,313.23c-6.54,0-10.46-3.92-9.15-10.79,7.84-44.45,40.53-39.87,47.39-73.21,1.96-9.8-3.27-21.57-16.01-21.57-15.36,0-22.88,8.5-25.16,21.9-.98,6.54-4.25,9.48-10.79,8.17l-37.26-8.17c-5.88-1.31-8.82-4.9-8.5-10.79,1.96-23.53,14.38-67.32,81.7-67.32,73.21,0,75.82,57.85,75.49,67.65,0,54.25-37.91,58.83-49.68,85.95-2.29,5.56-5.23,8.17-11.11,8.17h-36.93ZM-575.91,329.9c-6.21,0-9.8,3.27-9.8,9.8v36.6c0,6.21,3.59,9.8,9.8,9.8h36.6c6.54,0,9.8-3.59,9.8-9.8v-36.6c0-6.54-3.27-9.8-9.8-9.8h-36.6Z"/>
    </g>
  </g>
  <g>
    <path class="st0" d="M231.01,330.36l-9.4-16.28-9.4,16.28c-4.8,8.32-15.49,11.18-23.81,6.38l-98.63-56.94v80.73c0,4.51,2.24,8.38,6.14,10.63l119.56,69.03c3.9,2.25,8.37,2.25,12.28,0l119.56-69.03c3.9-2.25,6.14-6.12,6.14-10.63v-80.73l-98.63,56.94c-8.31,4.8-19.01,1.93-23.81-6.38Z"/>
    <path class="st0" d="M342.16,208.86l-39.84-23c-2.96,16.93-11.12,32.08-22.77,43.73-14.83,14.83-35.32,24-57.94,24s-43.11-9.17-57.94-24c-11.65-11.65-19.81-26.8-22.77-43.73l-39.84,23,120.55,69.6,120.55-69.6Z"/>
    <path class="st0" d="M221.62,242.41c19.54,0,37.23-7.92,50.04-20.73,12.81-12.81,20.73-30.5,20.73-50.04s-7.92-37.23-20.73-50.04c-12.81-12.81-30.5-20.73-50.04-20.73s-37.23,7.92-50.04,20.73-20.73,30.5-20.73,50.04,7.92,37.23,20.73,50.04c12.8,12.81,30.5,20.73,50.04,20.73ZM231.67,212.75c0,2.37-1.25,3.75-3.75,3.75h-13.99c-2.37,0-3.75-1.37-3.75-3.75v-13.99c0-2.5,1.37-3.75,3.75-3.75h13.99c2.5,0,3.75,1.25,3.75,3.75v13.99ZM222.8,126.79c27.99,0,28.99,22.12,28.86,25.86,0,20.74-14.49,22.49-18.99,32.86-.87,2.12-2,3.12-4.25,3.12h-14.12c-2.5,0-4-1.5-3.5-4.12,3-16.99,15.49-15.24,18.12-27.99.75-3.75-1.25-8.25-6.12-8.25-5.87,0-8.75,3.25-9.62,8.37-.37,2.5-1.62,3.62-4.12,3.12l-14.24-3.12c-2.25-.5-3.37-1.87-3.25-4.12.75-9,5.5-25.74,31.24-25.74Z"/>
    <path class="st0" d="M371.03,249.52l-19.18-33.22-130.24,75.19,19.18,33.22c1.69,2.93,5.46,3.94,8.39,2.25l119.6-69.05c2.93-1.69,3.94-5.46,2.25-8.39Z"/>
    <path class="st0" d="M72.2,249.52c-1.69,2.93-.68,6.69,2.25,8.39l119.6,69.05c2.93,1.69,6.69.68,8.39-2.25l19.18-33.22-130.24-75.19-19.18,33.22Z"/>
  </g>
</svg>