<?xml version="1.0" encoding="UTF-8"?>
<svg id="Camada_1" data-name="Camada 1" xmlns="http://www.w3.org/2000/svg" viewBox="0 0 443.23 535.4">
  <defs>
    <style>
      .cls-1 {
        fill: #103758;
      }

      .cls-2 {
        isolation: isolate;
      }
    </style>
  </defs>
  <g class="cls-2">
    <g class="cls-2">
      <path class="cls-1" d="M205.32,313.23c-6.54,0-10.46-3.92-9.15-10.79,7.84-44.45,40.53-39.87,47.39-73.21,1.96-9.8-3.27-21.57-16.01-21.57-15.36,0-22.88,8.5-25.16,21.9-.98,6.54-4.25,9.48-10.79,8.17l-37.26-8.17c-5.88-1.31-8.82-4.9-8.5-10.79,1.96-23.53,14.38-67.32,81.7-67.32,73.21,0,75.82,57.85,75.49,67.65,0,54.25-37.91,58.83-49.68,85.95-2.29,5.56-5.23,8.17-11.11,8.17h-36.93ZM204.34,329.9c-6.21,0-9.8,3.27-9.8,9.8v36.6c0,6.21,3.59,9.8,9.8,9.8h36.6c6.54,0,9.8-3.59,9.8-9.8v-36.6c0-6.54-3.27-9.8-9.8-9.8h-36.6Z"/>
    </g>
  </g>
</svg>