<?xml version="1.0" encoding="UTF-8"?>
<svg id="Camada_1" xmlns="http://www.w3.org/2000/svg" version="1.1" viewBox="0 0 187 69">
  <!-- Generator: Adobe Illustrator 29.6.1, SVG Export Plug-In . SVG Version: 2.1.1 Build 9)  -->
  <defs>
    <style>
      .st0 {
        fill: #d3b43b;
      }

      .st1 {
        fill: #324980;
      }
    </style>
  </defs>
  <g>
    <path class="st1" d="M72.75,17.11c0-1.82,1.44-3.27,3.27-3.27s3.26,1.44,3.26,3.27v23.66c0,1.82-1.44,3.26-3.26,3.26s-3.27-1.44-3.27-3.26v-23.66Z"/>
    <path class="st1" d="M90.95,17.36c0-1.82,1.44-3.27,3.26-3.27h16.62c1.65,0,2.97,1.31,2.97,2.97s-1.31,2.97-2.97,2.97h-13.36v6.32h11.45c1.65,0,2.97,1.31,2.97,2.97s-1.31,2.97-2.97,2.97h-11.45v8.48c0,1.82-1.44,3.26-3.27,3.26s-3.26-1.44-3.26-3.26v-23.41Z"/>
    <path class="st1" d="M123,40.51v-23.15c0-1.82,1.44-3.27,3.26-3.27h16.45c1.61,0,2.93,1.31,2.93,2.93s-1.31,2.88-2.93,2.88h-13.23v6.02h11.32c1.61,0,2.93,1.31,2.93,2.93s-1.31,2.88-2.93,2.88h-11.32v6.23h13.44c1.61,0,2.93,1.31,2.93,2.93s-1.31,2.88-2.93,2.88h-16.66c-1.82,0-3.26-1.44-3.26-3.26Z"/>
    <path class="st1" d="M155.65,17.19c0-1.82,1.44-3.26,3.26-3.26h.72c1.4,0,2.37.72,2.97,1.7l7.89,12.85,7.93-12.89c.68-1.1,1.61-1.65,2.93-1.65h.72c1.82,0,3.27,1.44,3.27,3.26v23.58c0,1.82-1.44,3.26-3.27,3.26s-3.22-1.48-3.22-3.26v-14.8l-5.72,8.82c-.68,1.02-1.53,1.65-2.71,1.65s-2.04-.64-2.71-1.65l-5.64-8.69v14.76c0,1.78-1.44,3.18-3.22,3.18s-3.18-1.4-3.18-3.18v-23.66Z"/>
  </g>
  <g>
    <path class="st1" d="M72.67,48.21c0-.18.15-.33.33-.33.18,0,.33.15.33.33v5.26c0,.18-.15.33-.33.33s-.33-.15-.33-.33v-5.26Z"/>
    <path class="st1" d="M74.51,49.73c0-.18.14-.33.32-.33s.33.14.33.33v.47c.28-.47.73-.84,1.48-.84,1.04,0,1.65.7,1.65,1.73v2.4c0,.18-.14.33-.32.33s-.33-.14-.33-.33v-2.24c0-.8-.43-1.3-1.19-1.3s-1.29.54-1.29,1.35v2.19c0,.18-.13.33-.32.33s-.33-.14-.33-.33v-3.75Z"/>
    <path class="st1" d="M83.35,53.48c0,.18-.14.33-.32.33s-.33-.14-.33-.33v-.58c-.35.52-.86.96-1.65.96-1.04,0-2.06-.82-2.06-2.24v-.02c0-1.41,1.03-2.25,2.06-2.25.8,0,1.32.43,1.65.92v-2.32c0-.18.13-.33.32-.33s.33.14.33.33v5.53ZM79.65,51.59v.02c0,1.02.71,1.67,1.52,1.67s1.56-.68,1.56-1.67v-.02c0-.99-.76-1.66-1.56-1.66s-1.52.62-1.52,1.66Z"/>
    <path class="st1" d="M84.37,48.09c0-.21.17-.34.38-.34s.38.13.38.34v.11c0,.2-.17.34-.38.34s-.38-.14-.38-.34v-.11ZM84.43,49.73c0-.18.14-.33.32-.33.18,0,.33.14.33.33v3.75c0,.18-.13.33-.32.33s-.33-.14-.33-.33v-3.75Z"/>
    <path class="st1" d="M85.88,51.62v-.02c0-1.22.95-2.25,2.21-2.25.72,0,1.2.28,1.59.63.05.04.1.13.1.23,0,.18-.14.31-.31.31-.08,0-.16-.03-.21-.08-.31-.28-.66-.52-1.18-.52-.88,0-1.54.74-1.54,1.67v.02c0,.94.68,1.68,1.59,1.68.49,0,.89-.23,1.2-.53.04-.04.1-.08.18-.08.16,0,.29.14.29.29,0,.08-.03.15-.08.2-.41.41-.9.69-1.63.69-1.26,0-2.21-1.03-2.21-2.24Z"/>
    <path class="st1" d="M90.18,52.51v-.02c0-.91.75-1.39,1.85-1.39.55,0,.94.08,1.33.18v-.15c0-.78-.48-1.18-1.29-1.18-.43,0-.8.1-1.12.24-.04.02-.08.02-.12.02-.15,0-.28-.13-.28-.28,0-.13.09-.23.18-.27.43-.18.86-.29,1.41-.29.61,0,1.08.16,1.39.48.29.29.44.71.44,1.26v2.36c0,.18-.13.32-.31.32s-.31-.13-.31-.3v-.39c-.3.39-.8.74-1.56.74-.8,0-1.61-.46-1.61-1.34ZM93.36,52.18v-.42c-.32-.09-.74-.18-1.27-.18-.81,0-1.26.35-1.26.89v.02c0,.54.5.86,1.09.86.79,0,1.44-.48,1.44-1.17Z"/>
    <path class="st1" d="M99.03,53.48c0,.18-.14.33-.32.33s-.33-.14-.33-.33v-.58c-.35.52-.86.96-1.65.96-1.04,0-2.06-.82-2.06-2.24v-.02c0-1.41,1.03-2.25,2.06-2.25.8,0,1.32.43,1.65.92v-2.32c0-.18.13-.33.32-.33s.33.14.33.33v5.53ZM95.33,51.59v.02c0,1.02.71,1.67,1.52,1.67s1.56-.68,1.56-1.67v-.02c0-.99-.76-1.66-1.56-1.66s-1.52.62-1.52,1.66Z"/>
    <path class="st1" d="M99.78,51.62v-.02c0-1.22.95-2.25,2.25-2.25s2.25,1.02,2.25,2.24v.02c0,1.22-.96,2.25-2.26,2.25s-2.24-1.02-2.24-2.24ZM103.63,51.62v-.02c0-.93-.69-1.69-1.6-1.69s-1.58.76-1.58,1.67v.02c0,.93.68,1.68,1.59,1.68s1.59-.75,1.59-1.66Z"/>
    <path class="st1" d="M105.03,49.73c0-.18.14-.33.32-.33.18,0,.33.14.33.33v.81c.32-.72.94-1.15,1.49-1.15.19,0,.32.14.32.33s-.12.3-.28.33c-.83.1-1.52.73-1.52,1.97v1.47c0,.18-.13.33-.32.33s-.33-.14-.33-.33v-3.75Z"/>
    <path class="st1" d="M109.88,53.86c-1.19,0-2.15-.91-2.15-2.25v-.02c0-1.24.88-2.25,2.07-2.25,1.28,0,2,1.04,2,2.19,0,.18-.14.3-.3.3h-3.12c.09.94.75,1.46,1.52,1.46.53,0,.93-.21,1.24-.5.05-.04.11-.08.18-.08.16,0,.28.13.28.28,0,.08-.03.15-.1.21-.41.39-.89.65-1.63.65ZM111.16,51.37c-.07-.79-.52-1.47-1.38-1.47-.75,0-1.32.63-1.4,1.47h2.78Z"/>
    <path class="st1" d="M112.29,53.3c-.06-.04-.12-.13-.12-.23,0-.15.13-.28.28-.28.06,0,.12.02.16.05.44.3.9.46,1.37.46.52,0,.89-.27.89-.68v-.02c0-.43-.51-.6-1.08-.76-.68-.19-1.43-.43-1.43-1.22v-.02c0-.74.62-1.24,1.47-1.24.46,0,.96.14,1.38.37.08.05.16.14.16.27,0,.15-.13.28-.28.28-.06,0-.11-.02-.14-.03-.37-.21-.76-.33-1.13-.33-.51,0-.83.27-.83.63v.02c0,.41.53.57,1.11.74.67.2,1.39.46,1.39,1.24v.02c0,.82-.68,1.29-1.54,1.29-.57,0-1.19-.21-1.66-.54Z"/>
    <path class="st1" d="M122.47,53.48c0,.18-.14.33-.32.33s-.33-.14-.33-.33v-.58c-.35.52-.86.96-1.65.96-1.04,0-2.06-.82-2.06-2.24v-.02c0-1.41,1.03-2.25,2.06-2.25.8,0,1.32.43,1.65.92v-2.32c0-.18.13-.33.32-.33s.33.14.33.33v5.53ZM118.77,51.59v.02c0,1.02.71,1.67,1.52,1.67s1.56-.68,1.56-1.67v-.02c0-.99-.76-1.66-1.56-1.66s-1.52.62-1.52,1.66Z"/>
    <path class="st1" d="M125.37,53.86c-1.19,0-2.15-.91-2.15-2.25v-.02c0-1.24.88-2.25,2.07-2.25,1.28,0,2,1.04,2,2.19,0,.18-.14.3-.3.3h-3.12c.09.94.75,1.46,1.52,1.46.53,0,.93-.21,1.24-.5.05-.04.11-.08.18-.08.16,0,.28.13.28.28,0,.08-.03.15-.1.21-.41.39-.89.65-1.63.65ZM126.65,51.37c-.07-.79-.52-1.47-1.38-1.47-.75,0-1.32.63-1.4,1.47h2.78Z"/>
    <path class="st1" d="M130.21,48.25c0-.18.15-.33.33-.33h3.62c.17,0,.3.13.3.3s-.13.31-.3.31h-3.28v2.09h2.91c.17,0,.3.13.3.3s-.13.3-.3.3h-2.91v2.25c0,.18-.15.33-.33.33s-.33-.15-.33-.33v-5.22Z"/>
    <path class="st1" d="M135.17,48.09c0-.21.17-.34.38-.34s.38.13.38.34v.11c0,.2-.17.34-.38.34s-.38-.14-.38-.34v-.11ZM135.22,49.73c0-.18.14-.33.32-.33.18,0,.33.14.33.33v3.75c0,.18-.13.33-.32.33s-.33-.14-.33-.33v-3.75Z"/>
    <path class="st1" d="M136.95,49.73c0-.18.14-.33.32-.33.18,0,.33.14.33.33v.47c.28-.47.73-.84,1.48-.84,1.04,0,1.65.7,1.65,1.73v2.4c0,.18-.14.33-.32.33-.18,0-.33-.14-.33-.33v-2.24c0-.8-.43-1.3-1.19-1.3s-1.29.54-1.29,1.35v2.19c0,.18-.13.33-.32.33s-.33-.14-.33-.33v-3.75Z"/>
    <path class="st1" d="M141.35,52.51v-.02c0-.91.75-1.39,1.85-1.39.55,0,.94.08,1.33.18v-.15c0-.78-.48-1.18-1.29-1.18-.43,0-.8.1-1.12.24-.04.02-.08.02-.12.02-.15,0-.28-.13-.28-.28,0-.13.09-.23.18-.27.43-.18.86-.29,1.41-.29.61,0,1.08.16,1.39.48.29.29.44.71.44,1.26v2.36c0,.18-.13.32-.31.32s-.31-.13-.31-.3v-.39c-.3.39-.8.74-1.56.74-.8,0-1.61-.46-1.61-1.34ZM144.53,52.18v-.42c-.32-.09-.74-.18-1.27-.18-.81,0-1.26.35-1.26.89v.02c0,.54.5.86,1.09.86.79,0,1.44-.48,1.44-1.17Z"/>
    <path class="st1" d="M146.09,49.73c0-.18.14-.33.32-.33.18,0,.33.14.33.33v.47c.28-.47.73-.84,1.48-.84,1.04,0,1.65.7,1.65,1.73v2.4c0,.18-.14.33-.32.33-.18,0-.33-.14-.33-.33v-2.24c0-.8-.43-1.3-1.19-1.3s-1.29.54-1.29,1.35v2.19c0,.18-.13.33-.32.33s-.33-.14-.33-.33v-3.75Z"/>
    <path class="st1" d="M150.55,51.62v-.02c0-1.22.95-2.25,2.21-2.25.72,0,1.2.28,1.59.63.05.04.1.13.1.23,0,.18-.14.31-.31.31-.08,0-.16-.03-.21-.08-.31-.28-.66-.52-1.18-.52-.88,0-1.54.74-1.54,1.67v.02c0,.94.68,1.68,1.59,1.68.49,0,.89-.23,1.2-.53.04-.04.1-.08.18-.08.16,0,.29.14.29.29,0,.08-.03.15-.08.2-.41.41-.9.69-1.63.69-1.26,0-2.21-1.03-2.21-2.24Z"/>
    <path class="st1" d="M155.17,48.09c0-.21.17-.34.38-.34s.38.13.38.34v.11c0,.2-.17.34-.38.34s-.38-.14-.38-.34v-.11ZM155.23,49.73c0-.18.14-.33.32-.33.18,0,.33.14.33.33v3.75c0,.18-.13.33-.32.33s-.33-.14-.33-.33v-3.75Z"/>
    <path class="st1" d="M156.63,52.51v-.02c0-.91.75-1.39,1.85-1.39.55,0,.94.08,1.33.18v-.15c0-.78-.48-1.18-1.29-1.18-.43,0-.8.1-1.12.24-.04.02-.08.02-.12.02-.15,0-.28-.13-.28-.28,0-.13.09-.23.18-.27.43-.18.86-.29,1.41-.29.61,0,1.08.16,1.39.48.29.29.44.71.44,1.26v2.36c0,.18-.13.32-.31.32s-.31-.13-.31-.3v-.39c-.3.39-.8.74-1.56.74-.8,0-1.61-.46-1.61-1.34ZM159.81,52.18v-.42c-.32-.09-.74-.18-1.27-.18-.81,0-1.26.35-1.26.89v.02c0,.54.5.86,1.09.86.79,0,1.44-.48,1.44-1.17Z"/>
    <path class="st1" d="M161.37,49.73c0-.18.14-.33.32-.33s.33.14.33.33v.44c.28-.43.67-.82,1.39-.82s1.15.38,1.39.86c.31-.48.77-.86,1.52-.86.99,0,1.6.67,1.6,1.74v2.39c0,.18-.14.33-.32.33s-.33-.14-.33-.33v-2.24c0-.83-.42-1.3-1.12-1.3-.65,0-1.19.48-1.19,1.34v2.2c0,.18-.14.33-.33.33s-.32-.14-.32-.33v-2.25c0-.81-.43-1.29-1.11-1.29s-1.2.57-1.2,1.36v2.18c0,.18-.13.33-.32.33s-.33-.14-.33-.33v-3.75Z"/>
    <path class="st1" d="M170.79,53.86c-1.19,0-2.15-.91-2.15-2.25v-.02c0-1.24.88-2.25,2.07-2.25,1.28,0,2,1.04,2,2.19,0,.18-.14.3-.3.3h-3.12c.09.94.75,1.46,1.52,1.46.53,0,.93-.21,1.24-.5.05-.04.11-.08.18-.08.16,0,.28.13.28.28,0,.08-.03.15-.1.21-.41.39-.89.65-1.63.65ZM172.07,51.37c-.07-.79-.52-1.47-1.38-1.47-.75,0-1.32.63-1.4,1.47h2.78Z"/>
    <path class="st1" d="M173.43,49.73c0-.18.14-.33.32-.33s.33.14.33.33v.47c.28-.47.73-.84,1.48-.84,1.04,0,1.65.7,1.65,1.73v2.4c0,.18-.14.33-.32.33s-.33-.14-.33-.33v-2.24c0-.8-.43-1.3-1.19-1.3s-1.29.54-1.29,1.35v2.19c0,.18-.13.33-.32.33s-.33-.14-.33-.33v-3.75Z"/>
    <path class="st1" d="M178.38,52.62v-2.61h-.35c-.15,0-.28-.13-.28-.28,0-.16.13-.28.28-.28h.35v-1.02c0-.18.13-.33.32-.33s.33.15.33.33v1.02h1.12c.16,0,.29.13.29.28,0,.16-.13.28-.29.28h-1.12v2.52c0,.53.29.72.73.72.23,0,.34-.06.39-.06.15,0,.28.13.28.28,0,.12-.08.21-.18.25-.18.08-.38.12-.63.12-.69,0-1.22-.34-1.22-1.22Z"/>
    <path class="st1" d="M180.85,51.62v-.02c0-1.22.95-2.25,2.25-2.25s2.25,1.02,2.25,2.24v.02c0,1.22-.96,2.25-2.26,2.25s-2.24-1.02-2.24-2.24ZM184.69,51.62v-.02c0-.93-.69-1.69-1.6-1.69s-1.58.76-1.58,1.67v.02c0,.93.68,1.68,1.59,1.68s1.59-.75,1.59-1.66Z"/>
    <path class="st1" d="M74.39,62.14c-1.19,0-2.15-.91-2.15-2.25v-.02c0-1.24.88-2.25,2.07-2.25,1.28,0,2,1.04,2,2.19,0,.18-.14.3-.3.3h-3.12c.09.94.75,1.46,1.52,1.46.53,0,.93-.21,1.24-.5.05-.04.11-.08.18-.08.16,0,.28.13.28.28,0,.08-.03.15-.1.21-.41.39-.89.65-1.63.65ZM75.66,59.64c-.07-.79-.52-1.47-1.38-1.47-.75,0-1.32.63-1.4,1.47h2.78Z"/>
    <path class="st1" d="M79.22,61.71v-5.18c0-.18.15-.33.33-.33h3.63c.17,0,.3.13.3.3s-.13.3-.3.3h-3.3v2h2.92c.17,0,.3.14.3.3,0,.17-.13.3-.3.3h-2.92v2.05h3.34c.17,0,.3.13.3.3s-.13.3-.3.3h-3.67c-.18,0-.33-.15-.33-.33Z"/>
    <path class="st1" d="M88.4,63.09c0,.18-.14.33-.32.33-.18,0-.33-.14-.33-.33v-1.92c-.35.52-.86.96-1.65.96-1.04,0-2.06-.82-2.06-2.24v-.02c0-1.41,1.03-2.25,2.06-2.25.8,0,1.32.43,1.65.92v-.54c0-.18.13-.33.32-.33s.33.15.33.33v5.09ZM84.7,59.87v.02c0,1.02.71,1.67,1.52,1.67s1.56-.68,1.56-1.67v-.02c0-.99-.76-1.66-1.56-1.66s-1.52.62-1.52,1.66Z"/>
    <path class="st1" d="M93.12,61.76c0,.18-.13.33-.32.33s-.32-.14-.32-.33v-.47c-.29.47-.73.84-1.48.84-1.04,0-1.65-.7-1.65-1.73v-2.4c0-.18.13-.33.32-.33s.33.14.33.33v2.24c0,.8.43,1.3,1.19,1.3s1.29-.54,1.29-1.35v-2.19c0-.18.13-.33.32-.33s.32.14.32.33v3.75Z"/>
    <path class="st1" d="M94.15,56.37c0-.21.17-.34.38-.34s.38.13.38.34v.11c0,.2-.17.34-.38.34s-.38-.14-.38-.34v-.11ZM94.21,58.01c0-.18.14-.33.32-.33.18,0,.33.14.33.33v3.75c0,.18-.13.33-.32.33s-.33-.14-.33-.33v-3.75Z"/>
    <path class="st1" d="M100.04,61.76c0,.18-.14.33-.32.33s-.33-.14-.33-.33v-.58c-.35.52-.86.96-1.65.96-1.04,0-2.06-.82-2.06-2.24v-.02c0-1.41,1.03-2.25,2.06-2.25.8,0,1.32.43,1.65.92v-2.32c0-.18.13-.33.32-.33s.33.14.33.33v5.53ZM96.34,59.87v.02c0,1.02.71,1.67,1.52,1.67s1.56-.68,1.56-1.67v-.02c0-.99-.76-1.66-1.56-1.66s-1.52.62-1.52,1.66Z"/>
    <path class="st1" d="M100.74,60.79v-.02c0-.91.75-1.39,1.85-1.39.55,0,.94.08,1.33.18v-.15c0-.78-.48-1.18-1.29-1.18-.43,0-.8.1-1.12.24-.04.02-.08.02-.12.02-.15,0-.28-.13-.28-.28,0-.13.09-.23.18-.27.43-.18.86-.29,1.41-.29.61,0,1.08.16,1.39.48.29.29.44.71.44,1.26v2.36c0,.18-.13.32-.31.32s-.31-.13-.31-.3v-.39c-.3.39-.8.74-1.56.74-.8,0-1.61-.46-1.61-1.34ZM103.92,60.45v-.42c-.32-.09-.74-.18-1.27-.18-.81,0-1.26.35-1.26.89v.02c0,.54.5.86,1.09.86.79,0,1.44-.48,1.44-1.17Z"/>
    <path class="st1" d="M109.59,61.76c0,.18-.14.33-.32.33s-.33-.14-.33-.33v-.58c-.35.52-.86.96-1.65.96-1.04,0-2.06-.82-2.06-2.24v-.02c0-1.41,1.03-2.25,2.06-2.25.8,0,1.32.43,1.65.92v-2.32c0-.18.13-.33.32-.33s.33.14.33.33v5.53ZM105.89,59.87v.02c0,1.02.71,1.67,1.52,1.67s1.56-.68,1.56-1.67v-.02c0-.99-.76-1.66-1.56-1.66s-1.52.62-1.52,1.66Z"/>
    <path class="st1" d="M112.5,62.14c-1.19,0-2.15-.91-2.15-2.25v-.02c0-1.24.88-2.25,2.07-2.25,1.28,0,2,1.04,2,2.19,0,.18-.14.3-.3.3h-3.12c.09.94.75,1.46,1.52,1.46.53,0,.93-.21,1.24-.5.05-.04.11-.08.18-.08.16,0,.28.13.28.28,0,.08-.03.15-.1.21-.41.39-.89.65-1.63.65ZM113.78,59.64c-.07-.79-.52-1.47-1.38-1.47-.75,0-1.32.63-1.4,1.47h2.78Z"/>
    <path class="st1" d="M117.34,56.5c0-.18.15-.33.33-.33h.08c.14,0,.24.08.31.18l2.09,3.14,2.09-3.14c.07-.11.18-.18.31-.18h.08c.18,0,.33.15.33.33v5.25c0,.18-.15.33-.33.33s-.33-.16-.33-.33v-4.36l-1.87,2.75c-.08.11-.16.17-.28.17s-.21-.06-.28-.17l-1.86-2.74v4.36c0,.18-.14.33-.33.33s-.32-.14-.32-.33v-5.26Z"/>
    <path class="st1" d="M127.76,61.76c0,.18-.13.33-.32.33s-.32-.14-.32-.33v-.47c-.29.47-.73.84-1.48.84-1.04,0-1.65-.7-1.65-1.73v-2.4c0-.18.13-.33.32-.33s.33.14.33.33v2.24c0,.8.43,1.3,1.19,1.3s1.29-.54,1.29-1.35v-2.19c0-.18.13-.33.32-.33s.32.14.32.33v3.75Z"/>
    <path class="st1" d="M128.79,58.01c0-.18.14-.33.32-.33.18,0,.33.14.33.33v.47c.28-.47.73-.84,1.48-.84,1.04,0,1.65.7,1.65,1.73v2.4c0,.18-.14.33-.32.33-.18,0-.33-.14-.33-.33v-2.24c0-.8-.43-1.3-1.19-1.3s-1.29.54-1.29,1.35v2.19c0,.18-.13.33-.32.33s-.33-.14-.33-.33v-3.75Z"/>
    <path class="st1" d="M133.52,56.37c0-.21.17-.34.38-.34s.38.13.38.34v.11c0,.2-.17.34-.38.34s-.38-.14-.38-.34v-.11ZM133.58,58.01c0-.18.14-.33.32-.33.18,0,.33.14.33.33v3.75c0,.18-.13.33-.32.33s-.33-.14-.33-.33v-3.75Z"/>
    <path class="st1" d="M135.03,59.9v-.02c0-1.22.95-2.25,2.21-2.25.72,0,1.2.28,1.59.63.05.04.1.13.1.23,0,.18-.14.31-.31.31-.08,0-.16-.03-.21-.08-.31-.28-.66-.52-1.18-.52-.88,0-1.54.74-1.54,1.67v.02c0,.94.68,1.68,1.59,1.68.49,0,.89-.23,1.2-.53.04-.04.1-.08.18-.08.16,0,.29.14.29.29,0,.08-.03.15-.08.2-.41.41-.9.69-1.63.69-1.26,0-2.21-1.03-2.21-2.24Z"/>
    <path class="st1" d="M139.65,56.37c0-.21.17-.34.38-.34s.38.13.38.34v.11c0,.2-.17.34-.38.34s-.38-.14-.38-.34v-.11ZM139.71,58.01c0-.18.14-.33.32-.33.18,0,.33.14.33.33v3.75c0,.18-.13.33-.32.33s-.33-.14-.33-.33v-3.75Z"/>
    <path class="st1" d="M141.43,58.01c0-.18.14-.33.32-.33s.33.14.33.33v.58c.35-.52.86-.96,1.65-.96,1.04,0,2.06.82,2.06,2.24v.02c0,1.41-1.02,2.25-2.06,2.25-.8,0-1.32-.43-1.65-.92v1.88c0,.18-.13.33-.32.33s-.33-.14-.33-.33v-5.09ZM145.13,59.89v-.02c0-1.02-.7-1.67-1.52-1.67s-1.56.68-1.56,1.66v.02c0,1,.76,1.67,1.56,1.67s1.52-.62,1.52-1.66Z"/>
    <path class="st1" d="M146.24,60.79v-.02c0-.91.75-1.39,1.85-1.39.55,0,.94.08,1.33.18v-.15c0-.78-.48-1.18-1.29-1.18-.43,0-.8.1-1.12.24-.04.02-.08.02-.12.02-.15,0-.28-.13-.28-.28,0-.13.09-.23.18-.27.43-.18.86-.29,1.41-.29.61,0,1.08.16,1.39.48.29.29.44.71.44,1.26v2.36c0,.18-.13.32-.31.32s-.31-.13-.31-.3v-.39c-.3.39-.8.74-1.56.74-.8,0-1.61-.46-1.61-1.34ZM149.42,60.45v-.42c-.32-.09-.74-.18-1.27-.18-.81,0-1.26.35-1.26.89v.02c0,.54.5.86,1.09.86.79,0,1.44-.48,1.44-1.17Z"/>
    <path class="st1" d="M151.04,56.23c0-.18.14-.33.32-.33.18,0,.33.15.33.33v5.53c0,.18-.13.33-.32.33s-.33-.14-.33-.33v-5.53Z"/>
  </g>
  <g>
    <path class="st1" d="M35.03,21.64c.94-.94,2.2-1.46,3.53-1.46s2.59.52,3.53,1.46c.94.94,1.46,2.2,1.46,3.53,0,.35-.04.7-.11,1.05l1.72,1.72c.34-.08.69-.11,1.05-.11.39,0,.78.05,1.16.14l7.97-6.65h-1.03v-4.15c-3.09.03-6.17.07-9.26.1-.57,0-1.14,0-1.71.01v-2.25c-2.51-.02-5.03-.05-7.55-.08v-6.98h-4.39v3.08h-8.61v-4.72h-7.18v4.93H6.17v10.07H1.65v8.54h11.71v2.56h7.6v3.46l12.69-9.83c-.29-1.58.2-3.22,1.38-4.4Z"/>
    <path class="st1" d="M51.21,32.83c0,1.34-.52,2.59-1.46,3.53s-2.2,1.46-3.53,1.46-2.59-.52-3.53-1.46c-1.22-1.22-1.7-2.94-1.34-4.57l-1.73-1.73c-.34.08-.69.11-1.05.11-.41,0-.81-.05-1.21-.15l-12.42,9.62h1.15v10.04h4.61v5.54h-3.17v7.4h7.4v-3.7h3.28v-9.24h9.66v-5.02h3.9v-3.61h2.54v-11.19h5.15v-4.91l-8.34,6.95c.06.3.09.61.09.93Z"/>
    <polygon class="st0" points="59.46 22.64 61.99 20.53 61.99 22.51 63.88 22.51 63.88 17.32 58.68 17.32 58.68 19.2 60.66 19.2 58.12 21.32 59.46 21.32 59.46 22.64"/>
    <path class="st0" d="M59.46,21.32h-1.35l-10.39,8.67c-.46-.25-.97-.39-1.51-.39s-1.05.14-1.51.39l-3.31-3.31c.25-.46.39-.97.39-1.51,0-.86-.34-1.67-.94-2.28-.61-.61-1.42-.94-2.28-.94s-1.67.34-2.28.94c-1.02,1.02-1.2,2.57-.55,3.79l-14.77,11.44-1.29,1c-.45-.24-.96-.39-1.51-.39-1.78,0-3.23,1.45-3.23,3.23s1.45,3.23,3.23,3.23,3.23-1.45,3.23-3.23c0-.55-.15-1.05-.39-1.51l1.05-.81,15.01-11.63c.46.25.97.39,1.51.39s1.05-.14,1.51-.39l3.31,3.31c-.65,1.22-.47,2.76.55,3.79.61.61,1.42.94,2.28.94s1.67-.34,2.28-.94.94-1.42.94-2.28c0-.54-.14-1.05-.39-1.51l10.41-8.68v-1.32ZM18.17,43.3c-.74,0-1.34-.6-1.34-1.34s.6-1.34,1.34-1.34,1.34.6,1.34,1.34-.6,1.34-1.34,1.34ZM39.51,26.13c-.25.25-.6.38-.95.38s-.7-.13-.95-.38c-.52-.52-.52-1.38,0-1.9.25-.25.59-.39.95-.39s.7.14.95.39c.25.25.39.59.39.95s-.14.7-.39.95ZM47.17,33.78c-.25.25-.6.38-.95.38s-.7-.13-.95-.38c-.52-.52-.52-1.38,0-1.9.25-.25.59-.39.95-.39s.7.14.95.39c.25.25.39.59.39.95s-.14.7-.39.95Z"/>
  </g>
</svg>